# xmcd CD database file
#
# Track frame offsets:
#	150
#	18145
#	32317
#	53397
#	77145
#	105955
#
# Disc length: 1630 seconds
#
# Revision: 0
# Processed by: cddbd v1.5.1PL0 Copyright (c) Steve Scherf et al.
# Submitted via: CDex 1.51
#
DISCID=2c065c06
DTITLE=Elvin Jones - Very R.A.R.E.
DYEAR=1979
DGENRE=Jazz
TTITLE0=Sweet Mama
TTITLE1=Passion Flower
TTITLE2=Zange
TTITLE3=Tin Tin Deo
TTITLE4=Pitter Pat
TTITLE5=The Witching Hour
EXTD=YEAR: 1979
EXTT0=
EXTT1=
EXTT2=
EXTT3=
EXTT4=
EXTT5=
PLAYORDER=
